<svg enable-background="new 0 0 24 24" height="512" viewBox="0 0 24 24" width="512" xmlns="http://www.w3.org/2000/svg"><path d="m19 13c-.115 0-.229-.039-.322-.118-.191-.16-4.678-3.988-4.678-7.882 0-2.757 2.243-5 5-5s5 2.243 5 5c0 3.894-4.487 7.722-4.678 7.882-.093.079-.207.118-.322.118zm0-12c-2.206 0-4 1.794-4 4 0 2.868 2.997 5.896 4 6.828 1.003-.933 4-3.96 4-6.828 0-2.206-1.794-4-4-4z"/><path d="m19 7c-1.103 0-2-.897-2-2s.897-2 2-2 2 .897 2 2-.897 2-2 2zm0-3c-.551 0-1 .448-1 1s.449 1 1 1 1-.448 1-1-.449-1-1-1z"/><path d="m3 23c-.118 0-.237-.042-.332-.126-.108-.096-2.668-2.389-2.668-4.749 0-1.723 1.346-3.125 3-3.125s3 1.402 3 3.125c0 2.36-2.56 4.653-2.668 4.749-.095.084-.214.126-.332.126zm0-7c-1.103 0-2 .953-2 2.125 0 1.463 1.356 3.021 2 3.679.644-.657 2-2.216 2-3.679 0-1.172-.897-2.125-2-2.125z"/><path d="m15.914 24h-12.914c-.276 0-.5-.224-.5-.5s.224-.5.5-.5h12.914c.318 0 .437-.244.466-.319s.105-.337-.13-.551l-7.172-6.52c-.462-.421-.615-1.069-.39-1.651.225-.583.774-.959 1.398-.959h8.914c.276 0 .5.224.5.5s-.224.5-.5.5h-8.914c-.318 0-.437.244-.466.319s-.105.337.13.551l7.172 6.52c.462.421.615 1.069.39 1.651-.225.583-.774.959-1.398.959z"/><path d="m3 19c-.551 0-1-.448-1-1s.449-1 1-1 1 .448 1 1-.449 1-1 1zm0-1.001s0 .001 0 0l.5.001z"/></svg>